<?xml version="1.0" encoding="UTF-8" standalone="no"?>
<svg width="70px" height="69px" viewBox="0 0 70 69" version="1.1" xmlns="http://www.w3.org/2000/svg" xmlns:xlink="http://www.w3.org/1999/xlink" xmlns:sketch="http://www.bohemiancoding.com/sketch/ns">
    <!-- Generator: Sketch 3.3.2 (12043) - http://www.bohemiancoding.com/sketch -->
    <title>Fill 34</title>
    <desc>Created with Sketch.</desc>
    <defs></defs>
    <g id="Page-1" stroke="none" stroke-width="1" fill="none" fill-rule="evenodd" sketch:type="MSPage">
        <g id="Page1:favoritesConnexion" sketch:type="MSArtboardGroup" transform="translate(-477.000000, -336.000000)" fill="#40C5E5">
            <path d="M511.99783,336.772727 C492.825199,336.772727 477.278766,352.31699 477.278766,371.496131 C477.278766,386.834236 487.2264,399.848188 501.02592,404.440072 C502.761982,404.759073 503.395644,403.687055 503.395644,402.766942 C503.395644,401.942313 503.365263,399.759215 503.347903,396.862162 C493.688889,398.960627 491.651187,392.207347 491.651187,392.207347 C490.073541,388.197044 487.79713,387.129367 487.79713,387.129367 C484.644008,384.97448 488.035839,385.017882 488.035839,385.017882 C491.518812,385.2631 493.352527,388.596339 493.352527,388.596339 C496.451398,393.902177 501.479466,392.370103 503.458577,391.480371 C503.773238,389.236511 504.67165,387.706607 505.663375,386.838576 C497.953091,385.961865 489.847853,382.984519 489.847853,369.679777 C489.847853,365.888652 491.199811,362.789782 493.42197,360.361465 C493.063907,359.482584 491.872535,355.954039 493.760502,351.173359 C493.760502,351.173359 496.677086,350.240226 503.308841,354.732285 C506.08003,353.961908 509.048695,353.577804 512.00217,353.562614 C514.951305,353.577804 517.92214,353.961908 520.695499,354.732285 C527.322914,350.240226 530.232988,351.173359 530.232988,351.173359 C532.127465,355.954039 530.936093,359.482584 530.57803,360.361465 C532.804529,362.789782 534.147807,365.888652 534.147807,369.679777 C534.147807,383.01707 526.029548,385.953185 518.295394,386.812535 C519.541018,387.884553 520.652097,390.002549 520.652097,393.242474 C520.652097,397.884269 520.608696,401.627652 520.608696,402.766942 C520.608696,403.695735 521.233678,404.776434 522.995781,404.435731 C536.782281,399.835168 546.721234,386.829896 546.721234,371.496131 C546.721234,352.31699 531.174801,336.772727 511.99783,336.772727" id="Fill-34" sketch:type="MSShapeGroup"></path>
        </g>
    </g>
</svg>