<?xml version="1.0" encoding="UTF-8" standalone="no"?>
<svg width="16px" height="21px" viewBox="0 0 16 21" version="1.1" xmlns="http://www.w3.org/2000/svg" xmlns:xlink="http://www.w3.org/1999/xlink" xmlns:sketch="http://www.bohemiancoding.com/sketch/ns">
    <!-- Generator: Sketch 3.3.2 (12043) - http://www.bohemiancoding.com/sketch -->
    <title>Imported Layers Copy 5</title>
    <desc>Created with Sketch.</desc>
    <defs></defs>
    <g id="Page-1" stroke="none" stroke-width="1" fill="none" fill-rule="evenodd" sketch:type="MSPage">
        <g id="Page1:Search1" sketch:type="MSArtboardGroup" transform="translate(-251.000000, -286.000000)" fill="#444444">
            <g id="Imported-Layers-Copy-5" sketch:type="MSLayerGroup" transform="translate(251.056120, 286.500000)">
                <path d="M5,6.58333333 L6.25,6.58333333 L6.25,5.33333333 L5,5.33333333 L5,6.58333333 Z M5,4.08333333 L6.25,4.08333333 L6.25,2.83333333 L5,2.83333333 L5,4.08333333 Z M13.75,0.333333333 L1.25,0.333333333 C0.625,0.333333333 0,0.958333333 0,1.58333333 L0,16.5833333 C0,17.2083333 0.625,17.8333333 1.25,17.8333333 L3.75,17.8333333 L3.75,20.3333333 L5.625,18.4583333 L7.5,20.3333333 L7.5,17.8333333 L13.75,17.8333333 C14.375,17.8333333 15,17.2083333 15,16.5833333 L15,1.58333333 C15,0.958333333 14.375,0.333333333 13.75,0.333333333 L13.75,0.333333333 Z M13.75,15.9583333 C13.75,16.2708333 13.4570313,16.5833333 13.125,16.5833333 L7.5,16.5833333 L7.5,15.3333333 L3.75,15.3333333 L3.75,16.5833333 L1.875,16.5833333 C1.54296875,16.5833333 1.25,16.2513021 1.25,15.9583333 L1.25,14.0833333 L13.75,14.0833333 L13.75,15.9583333 L13.75,15.9583333 Z M13.75,12.8333333 L3.75,12.8333333 L3.75,1.58333333 L13.7695313,1.58333333 L13.75,12.8333333 L13.75,12.8333333 Z M5,11.5833333 L6.25,11.5833333 L6.25,10.3333333 L5,10.3333333 L5,11.5833333 Z M5,9.08333333 L6.25,9.08333333 L6.25,7.83333333 L5,7.83333333 L5,9.08333333 Z" id="Imported-Layers" sketch:type="MSShapeGroup"></path>
            </g>
        </g>
    </g>
</svg>