<?xml version="1.0" encoding="utf-8"?>
<!-- Generator: Adobe Illustrator 19.0.0, SVG Export Plug-In . SVG Version: 6.00 Build 0)  -->
<svg version="1.1" id="Layer_1" xmlns:sketch="http://www.bohemiancoding.com/sketch/ns"
	 xmlns="http://www.w3.org/2000/svg" xmlns:xlink="http://www.w3.org/1999/xlink" x="0px" y="0px" viewBox="-280 374 51 45"
	 style="enable-background:new -280 374 51 45;" xml:space="preserve">
<style type="text/css">
	.st0{fill:#A0E1F0;}
	.st1{fill:none;}
	.st2{fill:#FFFFFF;}
</style>
<title>Rectangle 6 copy + search copy</title>
<desc>Created with Sketch.</desc>
<g id="Page-1" sketch:type="MSPage">
	<g id="Page1:Search2" transform="translate(-630.000000, -371.000000)" sketch:type="MSArtboardGroup">
		<g id="Search-Bar-Copy" transform="translate(341.000000, 371.000000)" sketch:type="MSLayerGroup">
			<g id="Rectangle-6-copy-_x2B_-search-copy" transform="translate(289.000000, 0.000000)">
				<g id="Rectangle-6-copy">
					<g sketch:type="MSShapeGroup">
						<path id="path-1" class="st0" d="M-279.1,374h40c5.5,0,10,4.5,10,10v25c0,5.5-4.5,10-10,10h-40V374z"/>
					</g>
					<g>
						<path id="path-1_1_" class="st1" d="M-279.1,374h40c5.5,0,10,4.5,10,10v25c0,5.5-4.5,10-10,10h-40V374z"/>
					</g>
				</g>
				<path id="search-copy" sketch:type="MSShapeGroup" class="st2" d="M-252.5,399.1c-1,0.7-2.2,1.1-3.4,1.1c-3.5,0-6.3-3-6.3-6.7
					c0-3.7,2.8-6.7,6.3-6.7s6.3,3,6.3,6.7c0,1.2-0.3,2.3-0.8,3.2l4.4,4.4c0.6,0.6,0.6,1.6,0,2.2c-0.6,0.6-1.6,0.6-2.2,0
					L-252.5,399.1L-252.5,399.1z M-255.9,397.7c2.2,0,3.9-1.9,3.9-4.2c0-2.3-1.8-4.2-3.9-4.2s-3.9,1.9-3.9,4.2
					C-259.8,395.8-258.1,397.7-255.9,397.7z"/>
			</g>
		</g>
	</g>
</g>
</svg>
